<mxfile host="app.diagrams.net" modified="2024-04-21T19:46:50.536Z" agent="Mozilla/5.0 (Windows NT 10.0; Win64; x64) AppleWebKit/537.36 (KHTML, like Gecko) Chrome/123.0.0.0 Safari/537.36" etag="6BUSA81pzlDkbrdmUmJS" version="24.2.2" type="device">
  <diagram name="Página-1" id="qkll58KhPcNFUL1ATWHQ">
    <mxGraphModel dx="2261" dy="780" grid="1" gridSize="10" guides="1" tooltips="1" connect="1" arrows="1" fold="1" page="1" pageScale="1" pageWidth="827" pageHeight="1169" math="0" shadow="0">
      <root>
        <mxCell id="0" />
        <mxCell id="1" parent="0" />
        <mxCell id="52vvLvErM6onmPHVvrQx-1" value="Gestión&lt;div&gt;de&lt;/div&gt;&lt;div&gt;Emergencias&lt;/div&gt;" style="shape=process;whiteSpace=wrap;html=1;backgroundOutline=1;fillColor=#E6E6E6;" parent="1" vertex="1">
          <mxGeometry x="294" y="150" width="120" height="60" as="geometry" />
        </mxCell>
        <mxCell id="52vvLvErM6onmPHVvrQx-3" value="" style="endArrow=none;html=1;rounded=0;entryX=0.5;entryY=1;entryDx=0;entryDy=0;fillColor=#E6E6E6;" parent="1" target="52vvLvErM6onmPHVvrQx-1" edge="1">
          <mxGeometry width="50" height="50" relative="1" as="geometry">
            <mxPoint x="354" y="240" as="sourcePoint" />
            <mxPoint x="440" y="380" as="targetPoint" />
          </mxGeometry>
        </mxCell>
        <mxCell id="52vvLvErM6onmPHVvrQx-4" value="Comunicación con Servicios Externos" style="rounded=1;whiteSpace=wrap;html=1;fillColor=#E6E6E6;" parent="1" vertex="1">
          <mxGeometry x="200" y="280" width="120" height="60" as="geometry" />
        </mxCell>
        <mxCell id="52vvLvErM6onmPHVvrQx-5" value="Registro de Emergencias&amp;nbsp;" style="rounded=1;whiteSpace=wrap;html=1;fillColor=#E6E6E6;" parent="1" vertex="1">
          <mxGeometry x="390" y="280" width="120" height="60" as="geometry" />
        </mxCell>
        <mxCell id="52vvLvErM6onmPHVvrQx-6" value="" style="endArrow=none;html=1;rounded=0;exitX=0.5;exitY=0;exitDx=0;exitDy=0;entryX=0.5;entryY=1;entryDx=0;entryDy=0;fillColor=#E6E6E6;" parent="1" source="52vvLvErM6onmPHVvrQx-4" target="52vvLvErM6onmPHVvrQx-1" edge="1">
          <mxGeometry width="50" height="50" relative="1" as="geometry">
            <mxPoint x="150" y="220" as="sourcePoint" />
            <mxPoint x="350" y="240" as="targetPoint" />
            <Array as="points">
              <mxPoint x="260" y="240" />
              <mxPoint x="354" y="240" />
            </Array>
          </mxGeometry>
        </mxCell>
        <mxCell id="52vvLvErM6onmPHVvrQx-7" value="" style="endArrow=none;html=1;rounded=0;exitX=0.5;exitY=0;exitDx=0;exitDy=0;entryX=0.5;entryY=1;entryDx=0;entryDy=0;fillColor=#E6E6E6;" parent="1" source="52vvLvErM6onmPHVvrQx-5" target="52vvLvErM6onmPHVvrQx-1" edge="1">
          <mxGeometry width="50" height="50" relative="1" as="geometry">
            <mxPoint x="510" y="200" as="sourcePoint" />
            <mxPoint x="604" y="130" as="targetPoint" />
            <Array as="points">
              <mxPoint x="450" y="240" />
              <mxPoint x="354" y="240" />
            </Array>
          </mxGeometry>
        </mxCell>
        <mxCell id="52vvLvErM6onmPHVvrQx-8" value="Asignacion de recursos para emergencias" style="rounded=1;whiteSpace=wrap;html=1;fillColor=#E6E6E6;" parent="1" vertex="1">
          <mxGeometry x="40" y="280" width="120" height="60" as="geometry" />
        </mxCell>
        <mxCell id="52vvLvErM6onmPHVvrQx-9" value="Informe de estado de emergencias" style="rounded=1;whiteSpace=wrap;html=1;fillColor=#E6E6E6;" parent="1" vertex="1">
          <mxGeometry x="550" y="280" width="120" height="60" as="geometry" />
        </mxCell>
        <mxCell id="52vvLvErM6onmPHVvrQx-11" value="Seguimiento de emergencias" style="rounded=1;whiteSpace=wrap;html=1;fillColor=#E6E6E6;" parent="1" vertex="1">
          <mxGeometry x="-120" y="280" width="120" height="60" as="geometry" />
        </mxCell>
        <mxCell id="52vvLvErM6onmPHVvrQx-13" value="Visualización de emergencias activas" style="rounded=1;whiteSpace=wrap;html=1;fillColor=#E6E6E6;" parent="1" vertex="1">
          <mxGeometry x="-280" y="280" width="120" height="60" as="geometry" />
        </mxCell>
        <mxCell id="52vvLvErM6onmPHVvrQx-14" value="Alertas de emergencias" style="rounded=1;whiteSpace=wrap;html=1;fillColor=#E6E6E6;" parent="1" vertex="1">
          <mxGeometry x="707" y="280" width="120" height="60" as="geometry" />
        </mxCell>
        <mxCell id="52vvLvErM6onmPHVvrQx-15" value="Gestión de recursos de emergencias" style="rounded=1;whiteSpace=wrap;html=1;fillColor=#E6E6E6;" parent="1" vertex="1">
          <mxGeometry x="860" y="280" width="120" height="60" as="geometry" />
        </mxCell>
        <mxCell id="52vvLvErM6onmPHVvrQx-17" value="" style="endArrow=none;html=1;rounded=0;exitX=0.5;exitY=0;exitDx=0;exitDy=0;entryX=0.5;entryY=1;entryDx=0;entryDy=0;fillColor=#E6E6E6;" parent="1" source="52vvLvErM6onmPHVvrQx-13" target="52vvLvErM6onmPHVvrQx-1" edge="1">
          <mxGeometry width="50" height="50" relative="1" as="geometry">
            <mxPoint x="-20" y="230" as="sourcePoint" />
            <mxPoint x="30" y="180" as="targetPoint" />
            <Array as="points">
              <mxPoint x="-220" y="240" />
              <mxPoint x="354" y="240" />
            </Array>
          </mxGeometry>
        </mxCell>
        <mxCell id="52vvLvErM6onmPHVvrQx-18" value="" style="endArrow=none;html=1;rounded=0;exitX=0.5;exitY=0;exitDx=0;exitDy=0;fillColor=#E6E6E6;" parent="1" source="52vvLvErM6onmPHVvrQx-11" edge="1">
          <mxGeometry width="50" height="50" relative="1" as="geometry">
            <mxPoint x="-20" y="230" as="sourcePoint" />
            <mxPoint x="-60" y="240" as="targetPoint" />
          </mxGeometry>
        </mxCell>
        <mxCell id="52vvLvErM6onmPHVvrQx-19" value="" style="endArrow=none;html=1;rounded=0;exitX=0.5;exitY=0;exitDx=0;exitDy=0;fillColor=#E6E6E6;" parent="1" edge="1">
          <mxGeometry width="50" height="50" relative="1" as="geometry">
            <mxPoint x="99.58" y="280" as="sourcePoint" />
            <mxPoint x="99.58" y="240" as="targetPoint" />
          </mxGeometry>
        </mxCell>
        <mxCell id="52vvLvErM6onmPHVvrQx-20" value="" style="endArrow=none;html=1;rounded=0;exitX=0.5;exitY=0;exitDx=0;exitDy=0;fillColor=#E6E6E6;" parent="1" edge="1">
          <mxGeometry width="50" height="50" relative="1" as="geometry">
            <mxPoint x="609.58" y="280" as="sourcePoint" />
            <mxPoint x="609.58" y="240" as="targetPoint" />
          </mxGeometry>
        </mxCell>
        <mxCell id="52vvLvErM6onmPHVvrQx-21" value="" style="endArrow=none;html=1;rounded=0;exitX=0.5;exitY=0;exitDx=0;exitDy=0;fillColor=#E6E6E6;" parent="1" edge="1">
          <mxGeometry width="50" height="50" relative="1" as="geometry">
            <mxPoint x="766.58" y="280" as="sourcePoint" />
            <mxPoint x="766.58" y="240" as="targetPoint" />
          </mxGeometry>
        </mxCell>
        <mxCell id="52vvLvErM6onmPHVvrQx-22" value="" style="endArrow=none;html=1;rounded=0;exitX=0.5;exitY=1;exitDx=0;exitDy=0;entryX=0.5;entryY=0;entryDx=0;entryDy=0;fillColor=#E6E6E6;" parent="1" source="52vvLvErM6onmPHVvrQx-1" target="52vvLvErM6onmPHVvrQx-15" edge="1">
          <mxGeometry width="50" height="50" relative="1" as="geometry">
            <mxPoint x="630" y="230" as="sourcePoint" />
            <mxPoint x="680" y="180" as="targetPoint" />
            <Array as="points">
              <mxPoint x="354" y="240" />
              <mxPoint x="920" y="240" />
            </Array>
          </mxGeometry>
        </mxCell>
        <mxCell id="52vvLvErM6onmPHVvrQx-23" value="Comunicación con conductores de vehiculos de transporte" style="rounded=1;whiteSpace=wrap;html=1;fillColor=#E6E6E6;" parent="1" vertex="1">
          <mxGeometry x="120" y="380" width="120" height="60" as="geometry" />
        </mxCell>
        <mxCell id="52vvLvErM6onmPHVvrQx-24" value="Comunicación con clientes Finales" style="rounded=1;whiteSpace=wrap;html=1;fillColor=#E6E6E6;" parent="1" vertex="1">
          <mxGeometry x="280" y="380" width="120" height="60" as="geometry" />
        </mxCell>
        <mxCell id="52vvLvErM6onmPHVvrQx-25" value="" style="endArrow=none;html=1;rounded=0;entryX=0.5;entryY=1;entryDx=0;entryDy=0;exitX=0.5;exitY=0;exitDx=0;exitDy=0;fillColor=#E6E6E6;" parent="1" source="52vvLvErM6onmPHVvrQx-23" target="52vvLvErM6onmPHVvrQx-4" edge="1">
          <mxGeometry width="50" height="50" relative="1" as="geometry">
            <mxPoint x="60" y="430" as="sourcePoint" />
            <mxPoint x="110" y="380" as="targetPoint" />
            <Array as="points">
              <mxPoint x="180" y="360" />
              <mxPoint x="260" y="360" />
            </Array>
          </mxGeometry>
        </mxCell>
        <mxCell id="52vvLvErM6onmPHVvrQx-26" value="" style="endArrow=none;html=1;rounded=0;exitX=0.5;exitY=1;exitDx=0;exitDy=0;entryX=0.5;entryY=0;entryDx=0;entryDy=0;fillColor=#E6E6E6;" parent="1" source="52vvLvErM6onmPHVvrQx-4" target="52vvLvErM6onmPHVvrQx-24" edge="1">
          <mxGeometry width="50" height="50" relative="1" as="geometry">
            <mxPoint x="329" y="350" as="sourcePoint" />
            <mxPoint x="379" y="300" as="targetPoint" />
            <Array as="points">
              <mxPoint x="260" y="360" />
              <mxPoint x="340" y="360" />
            </Array>
          </mxGeometry>
        </mxCell>
      </root>
    </mxGraphModel>
  </diagram>
</mxfile>
